<svg width="131" height="143" viewBox="0 0 131 143" fill="none" xmlns="http://www.w3.org/2000/svg">
<path d="M122.39 141.892C122.511 142.142 122.808 142.245 123.053 142.121L127.055 140.112C127.301 139.988 127.402 139.686 127.282 139.436C127.162 139.186 126.865 139.083 126.619 139.207L123.062 140.993L121.317 137.372C121.196 137.122 120.899 137.02 120.654 137.143C120.408 137.266 120.307 137.569 120.427 137.819L122.39 141.892ZM0.183043 0.668744C0.147362 1.17216 0.147351 1.17216 0.147342 1.17216C0.147346 1.17216 0.147342 1.17216 0.147347 1.17216C0.147358 1.17216 0.147384 1.17217 0.147426 1.17217C0.147507 1.17217 0.147648 1.17218 0.147848 1.1722C0.148252 1.17223 0.148894 1.17227 0.149774 1.17234C0.151537 1.17246 0.154256 1.17266 0.157923 1.17293C0.16526 1.17347 0.176399 1.17429 0.191295 1.17541C0.221091 1.17765 0.265925 1.18108 0.325463 1.18579C0.444539 1.19521 0.622429 1.20977 0.856455 1.23021C1.32451 1.27108 2.01709 1.3355 2.91279 1.42946L2.96462 0.927466L3.01645 0.42547C2.11489 0.330887 1.41669 0.265939 0.943269 0.224592C0.706557 0.203919 0.526038 0.189145 0.404389 0.179518C0.343565 0.174705 0.297455 0.17118 0.266402 0.168844C0.250873 0.167678 0.239108 0.166809 0.231149 0.166225C0.22717 0.165934 0.224139 0.165716 0.222067 0.165565C0.221031 0.16549 0.220234 0.165433 0.219677 0.165393C0.219398 0.165373 0.219181 0.165356 0.219021 0.165346C0.218943 0.165339 0.218879 0.165334 0.21883 0.165331C0.218804 0.16533 0.218778 0.165329 0.218766 0.165327C0.218744 0.165325 0.218724 0.165326 0.183043 0.668744ZM8.72817 1.6288L8.66123 2.12897C10.3684 2.36233 12.2977 2.64714 14.4166 2.99247L14.4959 2.49415L14.5752 1.99583C12.4476 1.64909 10.5101 1.36305 8.79512 1.12863L8.72817 1.6288ZM20.2312 3.50016L20.1404 3.99646C21.9404 4.33442 23.8307 4.71023 25.798 5.12763L25.9 4.63357L26.0021 4.13951C24.027 3.72046 22.1292 3.34316 20.322 3.00386L20.2312 3.50016ZM31.5568 5.90399L31.4435 6.39551C33.2686 6.82831 35.1425 7.2952 37.0565 7.79863L37.1813 7.30998L37.3061 6.82134C35.3842 6.3158 33.5026 5.84701 31.6701 5.41246L31.5568 5.90399ZM42.75 8.84952L42.6134 9.33489C44.4303 9.86211 46.2738 10.422 48.1372 11.0164L48.2861 10.5348L48.4351 10.0532C46.5633 9.45603 44.7115 8.89365 42.8867 8.36414L42.75 8.84952ZM53.7845 12.373L53.6227 12.8503C55.4254 13.4814 57.24 14.1453 59.0607 14.8438L59.2362 14.3714L59.4116 13.8991C57.5815 13.197 55.7579 12.5298 53.9464 11.8957L53.7845 12.373ZM64.6291 16.5375L64.4394 17.0041C66.2052 17.7463 67.9713 18.5222 69.7324 19.3334L69.9373 18.8734L70.1421 18.4135C68.3706 17.5976 66.5944 16.8172 64.8189 16.071L64.6291 16.5375ZM75.1631 21.3946L74.9422 21.8468C76.6597 22.7145 78.3673 23.6177 80.0601 24.5577L80.2979 24.1145L80.5357 23.6712C78.8313 22.7248 77.1123 21.8156 75.3839 20.9423L75.1631 21.3946ZM85.3215 27.0426L85.0658 27.4754C86.7108 28.482 88.3364 29.5262 89.9375 30.6093L90.2121 30.1886L90.4867 29.768C88.8727 28.6762 87.2345 27.624 85.5772 26.6099L85.3215 27.0426ZM94.9516 33.5659L94.6571 33.9724C96.2023 35.1329 97.7183 36.3334 99.2003 37.5754L99.5155 37.1854L99.8306 36.7954C98.3346 35.5416 96.8048 34.3301 95.246 33.1595L94.9516 33.5659ZM103.875 41.0557L103.539 41.4267C104.947 42.7524 106.317 44.1209 107.643 45.5334L108.001 45.1842L108.36 44.8349C107.019 43.4069 105.635 42.0239 104.212 40.6846L103.875 41.0557ZM111.858 49.5708L111.477 49.8952C112.704 51.3883 113.883 52.9263 115.01 54.5105L115.411 54.2138L115.813 53.9172C114.672 52.3134 113.479 50.7569 112.238 49.2463L111.858 49.5708ZM118.632 59.1101L118.21 59.376C119.212 61.0274 120.158 62.7249 121.044 64.4699L121.484 64.2372L121.924 64.0045C121.026 62.2365 120.068 60.5168 119.053 58.8441L118.632 59.1101ZM123.935 69.557L123.478 69.7545C124.217 71.5325 124.895 73.3562 125.509 75.2267L125.979 75.0656L126.448 74.9046C125.826 73.0093 125.139 71.1613 124.391 69.3595L123.935 69.557ZM127.609 80.7537L127.129 80.8776C127.586 82.7311 127.982 84.6274 128.314 86.5676L128.802 86.4799L129.29 86.3922C128.954 84.4277 128.553 82.5072 128.09 80.6297L127.609 80.7537ZM129.59 92.3107L129.098 92.3632C129.291 94.289 129.423 96.2555 129.492 98.2635L129.987 98.2449L130.482 98.2262C130.413 96.196 130.279 94.2069 130.083 92.2582L129.59 92.3107ZM130.007 104.074L129.512 104.061C129.461 105.988 129.353 107.951 129.186 109.951L129.68 109.993L130.173 110.034C130.342 108.016 130.451 106.033 130.502 104.086L130.007 104.074ZM129.036 115.83L128.545 115.762C128.286 117.661 127.975 119.592 127.611 121.554L128.098 121.647L128.584 121.74C128.952 119.761 129.265 117.815 129.526 115.899L129.036 115.83ZM126.889 127.428L126.407 127.313C125.975 129.176 125.496 131.066 124.969 132.985L125.446 133.12L125.923 133.255C126.454 131.324 126.936 129.42 127.371 127.543L126.889 127.428ZM123.775 138.78L123.303 138.626C123.003 139.58 122.691 140.54 122.366 141.507L122.835 141.669L123.304 141.831C123.63 140.858 123.944 139.893 124.246 138.933L123.775 138.78Z" fill="#004A73"/>
</svg>
