<svg width="182" height="199" viewBox="0 0 182 199" fill="none" xmlns="http://www.w3.org/2000/svg">
<path d="M181.324 194.303C181.487 194.08 181.441 193.764 181.22 193.597L177.629 190.874C177.409 190.707 177.098 190.752 176.935 190.974C176.772 191.197 176.819 191.513 177.039 191.68L180.231 194.1L177.872 197.322C177.709 197.545 177.755 197.861 177.976 198.028C178.196 198.195 178.507 198.15 178.67 197.928L181.324 194.303ZM0.638682 23.574L0.944261 23.9732C1.77697 23.319 2.6003 22.6801 3.4144 22.0564L3.11357 21.6535L2.81275 21.2505C1.99539 21.8767 1.16888 22.518 0.333104 23.1747L0.638682 23.574ZM7.89853 18.0848L8.18887 18.4956C9.74398 17.3686 11.263 16.3011 12.7469 15.2918L12.4685 14.8726L12.1901 14.4534C10.6977 15.4686 9.17073 16.5417 7.60818 17.6741L7.89853 18.0848ZM17.5964 11.5269L17.8584 11.9567C19.5249 10.918 21.1431 9.95912 22.7147 9.07783L22.4723 8.63643L22.2298 8.19503C20.6441 9.08425 19.0128 10.0509 17.3344 11.097L17.5964 11.5269ZM27.8096 5.85193L28.0246 6.3076C29.8014 5.45416 31.5119 4.71099 33.1589 4.07368L32.9791 3.60278L32.7993 3.13188C31.1263 3.77922 29.3923 4.53277 27.5945 5.39627L27.8096 5.85193ZM38.6795 1.74455L38.8061 2.2326C40.8013 1.71349 42.689 1.37292 44.4763 1.19993L44.4254 0.69844L44.3746 0.196953C42.5308 0.375422 40.5923 0.72588 38.5528 1.25651L38.6795 1.74455ZM50.2132 0.73882L50.1577 1.23898C52.1269 1.47898 53.9538 1.96323 55.6534 2.67189L55.8389 2.20611L56.0244 1.74034C54.2386 0.995728 52.3239 0.489162 50.2686 0.23866L50.2132 0.73882ZM60.8719 5.19951L60.5676 5.59502C62.0314 6.76038 63.3866 8.1375 64.6457 9.71041L65.0298 9.39452L65.4139 9.07863C64.1134 7.45393 62.7057 6.02161 61.1762 4.80401L60.8719 5.19951ZM68.3485 14.3455L67.919 14.5943C68.8462 16.2293 69.7113 17.9933 70.522 19.8754L70.9764 19.6766L71.4308 19.4777C70.6075 17.5664 69.7262 15.7684 68.7781 14.0966L68.3485 14.3455ZM73.0899 25.1822L72.6214 25.3448C73.2428 27.1547 73.8283 29.0445 74.3832 31.0067L74.86 30.8711L75.3369 30.7356C74.7776 28.7576 74.1866 26.8497 73.5583 25.0197L73.0899 25.1822ZM76.3763 36.7063L75.8942 36.8217C76.3394 38.6815 76.7644 40.5922 77.1728 42.5487L77.6582 42.4479L78.1436 42.347C77.7334 40.3821 77.3063 38.4615 76.8584 36.5909L76.3763 36.7063ZM78.8119 48.3093L78.3244 48.3992C78.6819 50.3203 79.0281 52.2771 79.3659 54.2651L79.8549 54.1831L80.3438 54.1012C80.0052 52.1087 79.6582 50.1466 79.2995 48.2194L78.8119 48.3093ZM80.8157 60.0404L80.3258 60.1169C80.6357 62.0675 80.9409 64.0425 81.244 66.038L81.7344 65.9649L82.2248 65.8919C81.9214 63.8947 81.6159 61.9174 81.3055 59.9639L80.8157 60.0404ZM82.6122 71.8187L82.1215 71.8901C82.4126 73.8496 82.704 75.8233 82.9987 77.8102L83.4894 77.7389L83.9801 77.6677C83.6856 75.682 83.3938 73.7065 83.1028 71.7473L82.6122 71.8187ZM84.3661 83.6059L83.8756 83.6785C84.1717 85.6392 84.473 87.6081 84.7818 89.5818L85.2719 89.5065L85.7619 89.4311C85.4535 87.4597 85.1524 85.4927 84.8566 83.5333L84.3661 83.6059ZM86.2133 95.3782L85.7239 95.4575C86.0466 97.4177 86.3789 99.3794 86.7231 101.34L87.2116 101.255L87.7001 101.17C87.3566 99.214 87.0249 97.2559 86.7027 95.2988L86.2133 95.3782ZM88.2793 107.113L87.7921 107.204C88.1627 109.161 88.5475 111.112 88.9487 113.056L89.4344 112.956L89.92 112.857C89.52 110.919 89.1363 108.973 88.7666 107.021L88.2793 107.113ZM90.6934 118.778L90.2099 118.887C90.6517 120.835 91.1126 122.772 91.595 124.694L92.0758 124.573L92.5565 124.452C92.0762 122.538 91.6171 120.609 91.177 118.668L90.6934 118.778ZM93.5995 130.325L93.1222 130.459C93.6621 132.391 94.227 134.303 94.8194 136.193L95.2921 136.044L95.7649 135.894C95.1759 134.015 94.614 132.113 94.0767 130.191L93.5995 130.325ZM97.1663 141.676L96.6993 141.843C97.3702 143.743 98.073 145.614 98.8106 147.455L99.27 147.268L99.7294 147.081C98.9975 145.255 98.2997 143.396 97.6332 141.51L97.1663 141.676ZM101.596 152.702L101.146 152.911C101.987 154.751 102.868 156.553 103.793 158.312L104.23 158.077L104.667 157.843C103.752 156.101 102.879 154.317 102.046 152.493L101.596 152.702ZM107.146 163.235L106.725 163.497C107.77 165.215 108.865 166.883 110.012 168.496L110.414 168.204L110.815 167.911C109.683 166.318 108.601 164.67 107.568 162.972L107.146 163.235ZM114.038 172.897L113.661 173.222C114.945 174.75 116.286 176.217 117.69 177.617L118.036 177.259L118.383 176.9C117.001 175.523 115.679 174.078 114.415 172.572L114.038 172.897ZM122.415 181.23L122.104 181.62C123.631 182.876 125.222 184.06 126.882 185.167L127.152 184.747L127.422 184.326C125.791 183.238 124.226 182.074 122.725 180.839L122.415 181.23ZM132.217 187.765L131.991 188.211C133.707 189.118 135.488 189.951 137.337 190.705L137.519 190.238L137.701 189.771C135.882 189.029 134.131 188.21 132.444 187.318L132.217 187.765ZM143.12 192.21L142.983 192.693C144.803 193.238 146.683 193.713 148.624 194.115L148.72 193.621L148.815 193.128C146.901 192.731 145.049 192.263 143.257 191.726L143.12 192.21ZM154.629 194.59L154.573 195.09C156.427 195.318 158.333 195.484 160.291 195.587L160.313 195.083L160.335 194.58C158.398 194.479 156.516 194.315 154.685 194.09L154.629 194.59ZM166.299 195.196L166.309 195.7C168.174 195.675 170.084 195.597 172.039 195.462L172.002 194.96L171.965 194.457C170.027 194.59 168.135 194.668 166.289 194.693L166.299 195.196ZM177.883 194.403L177.944 194.903C178.951 194.782 179.969 194.647 180.999 194.499L180.925 194L180.852 193.501C179.83 193.649 178.819 193.782 177.821 193.902L177.883 194.403Z" fill="#004A73"/>
</svg>
