<svg width="245" height="155" viewBox="0 0 245 155" fill="none" xmlns="http://www.w3.org/2000/svg">
<path d="M238.159 0.146967C237.926 0.00193408 237.62 0.0768929 237.476 0.31439L235.121 4.18476C234.977 4.42227 235.048 4.73238 235.281 4.87741C235.514 5.02246 235.82 4.9475 235.964 4.71001L238.057 1.26967L241.429 3.37062C241.662 3.51565 241.968 3.44071 242.112 3.20319C242.257 2.9657 242.185 2.65557 241.952 2.51054L238.159 0.146967ZM1.42392 154.577L1.89452 154.733C2.2275 153.716 2.56736 152.714 2.91401 151.727L2.44688 151.561L1.97975 151.395C1.63068 152.389 1.2885 153.398 0.953315 154.421L1.42392 154.577ZM4.61506 145.787L5.07426 145.975C5.82159 144.112 6.59515 142.306 7.39404 140.555L6.94421 140.346L6.49438 140.137C5.68874 141.903 4.90895 143.723 4.15587 145.6L4.61506 145.787ZM9.69403 134.72L10.1317 134.954C11.0743 133.152 12.0466 131.416 13.0473 129.742L12.6237 129.482L12.2002 129.223C11.1894 130.914 10.2077 132.668 9.25634 134.486L9.69403 134.72ZM15.9441 124.302L16.3502 124.588C17.506 122.907 18.694 121.297 19.9127 119.756L19.5268 119.442L19.141 119.128C17.9079 120.687 16.7064 122.315 15.538 124.016L15.9441 124.302ZM23.4838 114.791L23.8459 115.132C25.2176 113.635 26.6227 112.212 28.0592 110.862L27.7238 110.494L27.3883 110.125C25.9332 111.492 24.5104 112.932 23.1217 114.449L23.4838 114.791ZM32.3187 106.501L32.6245 106.895C34.196 105.634 35.8001 104.448 37.4346 103.334L37.1603 102.917L36.8859 102.499C35.2301 103.627 33.605 104.828 32.0129 106.106L32.3187 106.501ZM42.3054 99.6964L42.5468 100.135C44.2864 99.1376 46.0559 98.2118 47.853 97.3533L47.6445 96.8976L47.436 96.4419C45.6172 97.3109 43.8257 98.2482 42.0639 99.258L42.3054 99.6964ZM53.1836 94.4916L53.3597 94.9614C55.218 94.2308 57.1019 93.564 59.0088 92.9567L58.8636 92.476L58.7183 91.9952C56.7913 92.6089 54.8869 93.283 53.0075 94.0219L53.1836 94.4916ZM64.6576 90.8262L64.774 91.3151C66.7031 90.8279 68.6526 90.3949 70.6201 90.0121L70.5302 89.5173L70.4403 89.0224C68.4558 89.4084 66.4887 89.8454 64.5412 90.3373L64.6576 90.8262ZM76.4714 88.5171L76.5373 89.016C78.5029 88.7343 80.4837 88.4973 82.4775 88.3012L82.4332 87.7997L82.389 87.2981C80.3816 87.4956 78.3864 87.7343 76.4056 88.0182L76.4714 88.5171ZM88.4431 87.3304L88.4682 87.8334C90.4501 87.7171 92.4424 87.6366 94.4429 87.5883L94.4347 87.0846L94.4265 86.5808C92.4154 86.6293 90.4119 86.7103 88.4181 86.8273L88.4431 87.3304ZM100.462 87.0327L100.455 87.5366C102.444 87.5489 104.438 87.5892 106.436 87.6539L106.456 87.1502L106.475 86.6466C104.469 86.5817 102.466 86.5412 100.469 86.5288L100.462 87.0327ZM112.468 87.4143L112.437 87.9175C114.43 88.0269 116.424 88.157 118.419 88.3044L118.458 87.8019L118.498 87.2993C116.498 87.1515 114.497 87.021 112.498 86.9112L112.468 87.4143ZM124.448 88.2933L124.401 88.7953C126.396 88.9741 128.389 89.1668 130.377 89.3701L130.43 88.8687L130.484 88.3673C128.491 88.1638 126.495 87.9706 124.495 87.7914L124.448 88.2933ZM136.402 89.5086L136.344 90.0095C138.341 90.2323 140.332 90.4623 142.314 90.6959L142.375 90.1954L142.436 89.6948C140.452 89.4611 138.459 89.2308 136.46 89.0077L136.402 89.5086ZM148.339 90.9089L148.277 91.4092C150.276 91.6508 152.266 91.8926 154.242 92.1306L154.304 91.6302L154.365 91.1298C152.39 90.8919 150.402 90.6502 148.401 90.4085L148.339 90.9089ZM160.277 92.3396L160.217 92.8402C162.219 93.0732 164.206 93.2983 166.174 93.5115L166.23 93.0104L166.286 92.5094C164.321 92.2966 162.338 92.0718 160.337 91.8389L160.277 92.3396ZM172.234 93.6248L172.184 94.1265C174.186 94.3177 176.166 94.4915 178.121 94.6433L178.163 94.1409L178.204 93.6385C176.256 93.4872 174.282 93.3139 172.284 93.1231L172.234 93.6248ZM184.218 94.5399L184.189 95.0431C186.223 95.1508 188.225 95.2278 190.193 95.2684L190.207 94.7646L190.22 94.2609C188.264 94.2205 186.272 94.1439 184.248 94.0367L184.218 94.5399ZM196.201 94.7672L196.208 95.271C198.279 95.2262 200.304 95.1307 202.28 94.9773L202.245 94.4749L202.211 93.9724C200.255 94.1243 198.249 94.219 196.194 94.2635L196.201 94.7672ZM208.198 93.8049L208.268 94.3033C210.303 93.996 212.275 93.6105 214.178 93.1368L214.063 92.6475L213.949 92.1581C212.079 92.6235 210.137 93.0033 208.129 93.3065L208.198 93.8049ZM219.851 90.8374L220.024 91.3085C221.959 90.5638 223.802 89.6983 225.544 88.6982L225.303 88.2599L225.061 87.8216C223.366 88.7942 221.57 89.6384 219.678 90.3664L219.851 90.8374ZM230.242 84.816L230.557 85.2029C232.108 83.8966 233.546 82.4392 234.862 80.8174L234.48 80.4986L234.098 80.1797C232.823 81.7513 231.43 83.1633 229.927 84.4291L230.242 84.816ZM237.897 75.4015L238.329 75.6449C239.27 73.9358 240.111 72.0925 240.846 70.1064L240.382 69.9319L239.918 69.7574C239.199 71.6987 238.379 73.4957 237.464 75.1581L237.897 75.4015ZM242.125 64.145L242.607 64.2606C243.074 62.306 243.459 60.2384 243.76 58.0522L243.268 57.9861L242.777 57.92C242.481 60.0755 242.102 62.1099 241.643 64.0294L242.125 64.145ZM243.85 52.1113L244.345 52.1401C244.472 50.1352 244.537 48.0435 244.54 45.8615L244.044 45.8646L243.548 45.8676C243.545 48.0298 243.48 50.1003 243.354 52.0825L243.85 52.1113ZM243.904 39.9458L244.4 39.9182C244.304 37.868 244.158 35.7462 243.961 33.5506L243.467 33.5999L242.973 33.6491C243.169 35.8311 243.313 37.9384 243.409 39.9734L243.904 39.9458ZM242.851 27.8155L243.343 27.7497C243.099 25.761 242.817 23.7167 242.496 21.6153L242.006 21.6961L241.516 21.7769C241.836 23.8688 242.116 25.9031 242.359 27.8813L242.851 27.8155ZM241.003 15.6535L241.491 15.5601C241.151 13.6569 240.782 11.7103 240.382 9.71944L239.896 9.8235L239.41 9.92755C239.808 11.9116 240.176 13.8511 240.515 15.7469L241.003 15.6535ZM238.609 3.72689L239.093 3.6131C238.863 2.57295 238.626 1.52149 238.38 0.458627L237.897 0.577015L237.414 0.695403C237.659 1.75528 237.896 2.80368 238.125 3.84071L238.609 3.72689Z" fill="#004A73"/>
</svg>
