<!--?xml version="1.0" encoding="UTF-8"?-->
<svg width="128" height="128" viewBox="0 0 64 64" xmlns="http://www.w3.org/2000/svg" role="img" aria-label="Role-based access outline icon">
  <title>Role-based access (outline)</title>
  <!-- shield outline -->
  <path d="M32 4l16 5v13c0 12-8 21-16 24-8-3-16-12-16-24V9z" fill="none" stroke="#111827" stroke-width="2" stroke-linejoin="round"></path>
  <!-- two users outline -->
  <g fill="none" stroke="#111827" stroke-width="1.6" stroke-linecap="round" stroke-linejoin="round">
    <circle cx="20" cy="24" r="4"></circle>
    <path d="M12 34c2-2.6 6-4.5 10-4.5s8 1.9 10 4.5"></path>
    <circle cx="36" cy="22" r="5"></circle>
    <path d="M28 34c2-2.6 6-4.5 10-4.5s8 1.9 10 4.5"></path>
  </g>
  <!-- small gear outline -->
  <g transform="translate(41,7) scale(0.9)" fill="none" stroke="#111827" stroke-width="1.4">
    <circle cx="6" cy="6" r="2.4"></circle>
    <path d="M6 0v2 M6 10v2 M0 6h2 M10 6h2 M2 2l1.6 1.6 M8.4 8.4L10 10 M2 10L3.6 8.4 M8.4 1.6L10 0"></path>
  </g>
</svg>
